<?xml version="1.0" encoding="UTF-8"?>
<svg width="100" height="100" version="1.1" viewBox="0 0 700 700" xmlns="http://www.w3.org/2000/svg" xmlns:xlink="http://www.w3.org/1999/xlink">
 <defs>
  <symbol id="o" overflow="visible">
   <path d="m36.078-2.1562c-1.8672 0.96875-3.8086 1.6992-5.8281 2.1875-2.0117 0.48828-4.1094 0.73438-6.2969 0.73438-6.543 0-11.727-1.8281-15.547-5.4844-3.8125-3.6562-5.7188-8.6133-5.7188-14.875 0-6.2695 1.9062-11.234 5.7188-14.891 3.8203-3.6562 9.0039-5.4844 15.547-5.4844 2.1875 0 4.2852 0.25 6.2969 0.75 2.0195 0.49219 3.9609 1.2148 5.8281 2.1719v8.125c-1.875-1.2812-3.7266-2.2188-5.5469-2.8125-1.8242-0.59375-3.7461-0.89062-5.7656-0.89062-3.6172 0-6.4609 1.1562-8.5312 3.4688-2.0625 2.3125-3.0938 5.5-3.0938 9.5625 0 4.0547 1.0312 7.2344 3.0938 9.5469 2.0703 2.3125 4.9141 3.4688 8.5312 3.4688 2.0195 0 3.9414-0.29688 5.7656-0.89062 1.8203-0.59375 3.6719-1.5312 5.5469-2.8125z"/>
  </symbol>
  <symbol id="i" overflow="visible">
   <path d="m26.391-21.422c-0.82422-0.38281-1.6406-0.67188-2.4531-0.85938s-1.6328-0.28125-2.4531-0.28125c-2.4297 0-4.293 0.77734-5.5938 2.3281-1.3047 1.5547-1.9531 3.7773-1.9531 6.6719v13.562h-9.4219v-29.453h9.4219v4.8438c1.207-1.9258 2.5938-3.332 4.1562-4.2188 1.5703-0.88281 3.4531-1.3281 5.6406-1.3281 0.32031 0 0.66406 0.015625 1.0312 0.046875 0.36328 0.023437 0.89844 0.074219 1.6094 0.15625z"/>
  </symbol>
  <symbol id="b" overflow="visible">
   <path d="m33.922-14.797v2.6719h-22.016c0.22656 2.2109 1.0234 3.8672 2.3906 4.9688 1.375 1.1055 3.2852 1.6562 5.7344 1.6562 1.9766 0 4.0039-0.28906 6.0781-0.875 2.082-0.58203 4.2188-1.4727 6.4062-2.6719v7.2656c-2.2188 0.83594-4.4453 1.4648-6.6719 1.8906-2.2305 0.4375-4.4531 0.65625-6.6719 0.65625-5.3359 0-9.4805-1.3516-12.438-4.0625-2.9492-2.707-4.4219-6.5078-4.4219-11.406 0-4.8008 1.4453-8.5781 4.3438-11.328 2.9062-2.75 6.8984-4.125 11.984-4.125 4.625 0 8.3281 1.3984 11.109 4.1875 2.7812 2.7812 4.1719 6.5078 4.1719 11.172zm-9.6875-3.1406c0-1.7812-0.52344-3.2188-1.5625-4.3125-1.043-1.0938-2.4023-1.6406-4.0781-1.6406-1.8242 0-3.3086 0.51172-4.4531 1.5312-1.1367 1.0234-1.8438 2.4961-2.125 4.4219z"/>
  </symbol>
  <symbol id="h" overflow="visible">
   <path d="m17.719-13.25c-1.9609 0-3.4375 0.33594-4.4375 1-0.99219 0.66797-1.4844 1.6484-1.4844 2.9375 0 1.1992 0.39844 2.1367 1.2031 2.8125 0.80078 0.66797 1.9102 1 3.3281 1 1.7695 0 3.2578-0.63281 4.4688-1.9062 1.207-1.2695 1.8125-2.8594 1.8125-4.7656v-1.0781zm14.375-3.5469v16.797h-9.4844v-4.3594c-1.2617 1.7812-2.6836 3.0859-4.2656 3.9062-1.5742 0.8125-3.4922 1.2188-5.75 1.2188-3.0547 0-5.5312-0.89062-7.4375-2.6719-1.8984-1.7812-2.8438-4.0859-2.8438-6.9219 0-3.457 1.1875-5.9883 3.5625-7.5938 2.375-1.6133 6.1016-2.4219 11.188-2.4219h5.5469v-0.75c0-1.4883-0.58984-2.5781-1.7656-3.2656-1.168-0.6875-2.9961-1.0312-5.4844-1.0312-2.0234 0-3.9023 0.20312-5.6406 0.60938-1.7305 0.39844-3.3398 0.99609-4.8281 1.7969v-7.1719c2.0078-0.48828 4.0312-0.85938 6.0625-1.1094 2.0391-0.25781 4.0781-0.39062 6.1094-0.39062 5.3125 0 9.1445 1.0469 11.5 3.1406 2.3516 2.0938 3.5312 5.5 3.5312 10.219z"/>
  </symbol>
  <symbol id="a" overflow="visible">
   <path d="m14.797-37.812v8.3594h9.7031v6.7344h-9.7031v12.484c0 1.375 0.26953 2.3047 0.8125 2.7812 0.55078 0.48047 1.6289 0.71875 3.2344 0.71875h4.8438v6.7344h-8.0781c-3.7109 0-6.3398-0.77344-7.8906-2.3281-1.5547-1.5508-2.3281-4.1875-2.3281-7.9062v-12.484h-4.6875v-6.7344h4.6875v-8.3594z"/>
  </symbol>
  <symbol id="g" overflow="visible">
   <path d="m24.562-25.141v-15.766h9.4531v40.906h-9.4531v-4.2656c-1.3047 1.7422-2.7344 3.0156-4.2969 3.8281-1.5547 0.80078-3.3555 1.2031-5.4062 1.2031-3.6367 0-6.6211-1.4414-8.9531-4.3281-2.3242-2.8828-3.4844-6.5977-3.4844-11.141 0-4.5312 1.1602-8.2383 3.4844-11.125 2.332-2.8828 5.3164-4.3281 8.9531-4.3281 2.0312 0 3.8281 0.41406 5.3906 1.2344 1.5703 0.8125 3.0078 2.0742 4.3125 3.7812zm-6.2188 19.062c2.0195 0 3.5625-0.73438 4.625-2.2031s1.5938-3.6094 1.5938-6.4219c0-2.8008-0.53125-4.9375-1.5938-6.4062s-2.6055-2.2031-4.625-2.2031c-1.9922 0-3.5156 0.73438-4.5781 2.2031s-1.5938 3.6055-1.5938 6.4062c0 2.8125 0.53125 4.9531 1.5938 6.4219s2.5859 2.2031 4.5781 2.2031z"/>
  </symbol>
  <symbol id="f" overflow="visible">
   <path d="m20.188-6.0781c2.0195 0 3.5547-0.73438 4.6094-2.2031 1.0625-1.4688 1.5938-3.6094 1.5938-6.4219 0-2.8008-0.53125-4.9375-1.5938-6.4062-1.0547-1.4688-2.5898-2.2031-4.6094-2.2031-2.0117 0-3.5586 0.74219-4.6406 2.2188-1.0742 1.4805-1.6094 3.6094-1.6094 6.3906 0 2.793 0.53516 4.9297 1.6094 6.4062 1.082 1.4805 2.6289 2.2188 4.6406 2.2188zm-6.25-19.062c1.2891-1.707 2.7227-2.9688 4.2969-3.7812 1.582-0.82031 3.3984-1.2344 5.4531-1.2344 3.625 0 6.6016 1.4453 8.9375 4.3281 2.332 2.8867 3.5 6.5938 3.5 11.125 0 4.543-1.168 8.2578-3.5 11.141-2.3359 2.8867-5.3125 4.3281-8.9375 4.3281-2.0547 0-3.8711-0.40625-5.4531-1.2188-1.5742-0.82031-3.0078-2.0938-4.2969-3.8125v4.2656h-9.4219v-40.906h9.4219z"/>
  </symbol>
  <symbol id="e" overflow="visible">
   <path d="m0.65625-29.453h9.4062l7.9219 19.984 6.7344-19.984h9.4062l-12.375 32.234c-1.25 3.2812-2.7031 5.5703-4.3594 6.875-1.6562 1.3125-3.8438 1.9688-6.5625 1.9688h-5.4375v-6.1875h2.9375c1.6016 0 2.7656-0.25781 3.4844-0.76562 0.72656-0.5 1.2969-1.4062 1.7031-2.7188l0.26562-0.82812z"/>
  </symbol>
  <symbol id="d" overflow="visible">
   <path d="m15.062-31.609v23.953h3.625c4.1328 0 7.2891-1.0195 9.4688-3.0625 2.1875-2.0508 3.2812-5.0352 3.2812-8.9531 0-3.8828-1.0898-6.8438-3.2656-8.875-2.168-2.0391-5.3281-3.0625-9.4844-3.0625zm-10.125-7.6406h10.672c5.9688 0 10.41 0.42969 13.328 1.2812 2.9141 0.84375 5.4141 2.2812 7.5 4.3125 1.8438 1.7734 3.207 3.8125 4.0938 6.125 0.89453 2.3125 1.3438 4.9336 1.3438 7.8594 0 2.9688-0.44922 5.6172-1.3438 7.9375-0.88672 2.3242-2.25 4.3711-4.0938 6.1406-2.1055 2.0312-4.6328 3.4766-7.5781 4.3281-2.9375 0.84375-7.3555 1.2656-13.25 1.2656h-10.672z"/>
  </symbol>
  <symbol id="n" overflow="visible">
   <path d="m4.5156-29.453h9.4219v29.453h-9.4219zm0-11.453h9.4219v7.6719h-9.4219z"/>
  </symbol>
  <symbol id="m" overflow="visible">
   <path d="m34.125-17.938v17.938h-9.4688v-13.719c0-2.5391-0.058594-4.2891-0.17188-5.25-0.11719-0.96875-0.3125-1.6797-0.59375-2.1406-0.36719-0.61328-0.86719-1.0938-1.5-1.4375-0.625-0.34375-1.3398-0.51562-2.1406-0.51562-1.9688 0-3.5156 0.76172-4.6406 2.2812-1.1172 1.5117-1.6719 3.6094-1.6719 6.2969v14.484h-9.4219v-29.453h9.4219v4.3125c1.4141-1.707 2.9219-2.9688 4.5156-3.7812 1.5938-0.82031 3.3516-1.2344 5.2812-1.2344 3.4062 0 5.9883 1.0469 7.75 3.1406 1.7578 2.0859 2.6406 5.1094 2.6406 9.0781z"/>
  </symbol>
  <symbol id="c" overflow="visible">
   <path d="m18.531-23.422c-2.0859 0-3.6719 0.75-4.7656 2.25s-1.6406 3.6562-1.6406 6.4688c0 2.8242 0.54688 4.9844 1.6406 6.4844s2.6797 2.25 4.7656 2.25c2.0508 0 3.6172-0.75 4.7031-2.25 1.0938-1.5 1.6406-3.6602 1.6406-6.4844 0-2.8125-0.54688-4.9688-1.6406-6.4688-1.0859-1.5-2.6523-2.25-4.7031-2.25zm0-6.7344c5.0703 0 9.0312 1.3711 11.875 4.1094 2.8438 2.7305 4.2656 6.5117 4.2656 11.344 0 4.8438-1.4219 8.6367-4.2656 11.375-2.8438 2.7305-6.8047 4.0938-11.875 4.0938-5.0859 0-9.0586-1.3633-11.922-4.0938-2.8672-2.7383-4.2969-6.5312-4.2969-11.375 0-4.832 1.4297-8.6133 4.2969-11.344 2.8633-2.7383 6.8359-4.1094 11.922-4.1094z"/>
  </symbol>
  <symbol id="l" overflow="visible">
   <path d="m27.531-28.531v7.1562c-2.0234-0.84375-3.9688-1.4727-5.8438-1.8906-1.875-0.41406-3.6484-0.625-5.3125-0.625-1.7812 0-3.1094 0.22656-3.9844 0.67188-0.86719 0.4375-1.2969 1.1211-1.2969 2.0469 0 0.76172 0.32812 1.3438 0.98438 1.75 0.65625 0.39844 1.832 0.69531 3.5312 0.89062l1.6562 0.23438c4.8203 0.61719 8.0664 1.625 9.7344 3.0312 1.6641 1.3984 2.5 3.5938 2.5 6.5938 0 3.1367-1.1562 5.4961-3.4688 7.0781-2.3125 1.5742-5.7656 2.3594-10.359 2.3594-1.9492 0-3.9648-0.15625-6.0469-0.46875-2.0742-0.30078-4.2031-0.75781-6.3906-1.375v-7.1562c1.875 0.91797 3.7969 1.6055 5.7656 2.0625 1.9766 0.44922 3.9844 0.67188 6.0156 0.67188 1.832 0 3.2109-0.25 4.1406-0.75 0.9375-0.50781 1.4062-1.2656 1.4062-2.2656 0-0.84375-0.32422-1.4688-0.96875-1.875-0.63672-0.41406-1.9062-0.73828-3.8125-0.96875l-1.6562-0.20312c-4.1992-0.53125-7.1406-1.5039-8.8281-2.9219-1.6797-1.4141-2.5156-3.5703-2.5156-6.4688 0-3.125 1.0664-5.4375 3.2031-6.9375 2.1445-1.5078 5.4258-2.2656 9.8438-2.2656 1.7383 0 3.5625 0.13672 5.4688 0.40625 1.9062 0.26172 3.9844 0.66797 6.2344 1.2188z"/>
  </symbol>
  <symbol id="k" overflow="visible">
   <path d="m23.891-40.906v6.1719h-5.2031c-1.3359 0-2.2617 0.24609-2.7812 0.73438-0.52344 0.48047-0.78125 1.3125-0.78125 2.5v2.0469h8.0312v6.7344h-8.0312v22.719h-9.4219v-22.719h-4.6719v-6.7344h4.6719v-2.0469c0-3.207 0.89062-5.5781 2.6719-7.1094 1.7891-1.5312 4.5625-2.2969 8.3125-2.2969z"/>
  </symbol>
  <symbol id="j" overflow="visible">
   <path d="m4.9375-39.25h10.125v31.594h17.781v7.6562h-27.906z"/>
  </symbol>
 </defs>
 <g>
  <path d="m350 538.46c-4.7227 0-8.8906-3.0703-10.285-7.582l-19.344-62.449c-3.8398-12.391-13.094-21.824-25.402-25.891-12.309-4.0703-25.367-2.0195-35.824 5.6484l-55.859 40.891c-3.8477 2.8086-9.0703 2.7773-12.867-0.10547-3.793-2.8711-5.2461-7.8984-3.582-12.355l21.555-57.609c4.6914-12.535 2.9219-25.988-4.8555-36.883s-19.98-16.953-33.281-16.586l-67.66 1.7773c-4.707 0.0625-9.1289-2.9648-10.562-7.5703-1.4375-4.5977 0.36328-9.5898 4.4023-12.219l52.695-34.336c11.426-7.457 17.977-19.551 17.977-33.191s-6.5508-25.734-17.984-33.18l-52.695-34.336c-4.0391-2.6289-5.8359-7.625-4.4023-12.219 1.4375-4.5977 5.8594-7.582 10.562-7.5703l67.66 1.7773c13.168 0.36719 25.516-5.6992 33.285-16.586 7.7734-10.895 9.5391-24.336 4.8477-36.871l-21.555-57.621c-1.668-4.4609-0.21094-9.4844 3.582-12.355 3.8086-2.8828 9.0234-2.9141 12.867-0.10547l55.859 40.891c10.457 7.6367 23.516 9.6953 35.824 5.6484 12.309-4.0703 21.566-13.504 25.402-25.891l19.344-62.449c1.4062-4.5234 5.5742-7.5938 10.297-7.5938s8.8906 3.0703 10.285 7.582l19.344 62.449c3.8398 12.391 13.098 21.824 25.41 25.891 12.301 4.0586 25.355 2.0078 35.82-5.6484l55.859-40.891c3.8438-2.8203 9.0664-2.7852 12.867 0.10547 3.793 2.8711 5.2461 7.8984 3.582 12.355l-21.555 57.625c-4.6914 12.535-2.918 25.977 4.8555 36.871 7.7773 10.895 19.996 16.891 33.285 16.586l67.656-1.7773c4.8438-0.011719 9.1406 2.9766 10.562 7.5703 1.4375 4.5977-0.36328 9.5898-4.4023 12.219l-52.695 34.336c-11.43 7.4531-17.98 19.547-17.98 33.188s6.5508 25.734 17.984 33.18l52.695 34.336c4.0391 2.6289 5.8359 7.625 4.4023 12.219-1.4297 4.6055-5.9141 7.457-10.562 7.5703l-67.656-1.7773c-13.074-0.34766-25.504 5.6797-33.285 16.586-7.7734 10.895-9.543 24.348-4.8555 36.883l21.555 57.609c1.668 4.4609 0.21094 9.4844-3.582 12.355-3.7969 2.8906-9.0117 2.9219-12.867 0.10547l-55.859-40.891c-10.453-7.6445-23.52-9.6953-35.82-5.6484-12.309 4.0703-21.57 13.504-25.41 25.891l-19.344 62.449c-1.3984 4.5234-5.5664 7.5938-10.289 7.5938zm-67.676-119.54c6.4688 0 13.004 1.0508 19.402 3.1641 19.004 6.2773 33.297 20.844 39.211 39.965l9.0625 29.238 9.0586-29.238c5.9219-19.121 20.219-33.684 39.223-39.965 18.992-6.2773 39.152-3.1133 55.301 8.7188l26.785 19.602-8.9297-23.863c-7.1367-19.078-4.332-40.375 7.4922-56.949 11.828-16.574 31.051-26.125 51.387-25.609l29.59 0.77734-20.793-13.547c-17.379-11.316-27.758-30.469-27.758-51.219s10.379-39.902 27.766-51.227l20.793-13.547-29.59 0.77734c-20.527 0.37891-39.562-9.0352-51.387-25.609-11.824-16.586-14.629-37.859-7.4922-56.938l8.9336-23.875-26.793 19.602c-16.148 11.844-36.309 14.988-55.301 8.7188-19.004-6.2773-33.301-20.844-39.223-39.965l-9.0625-29.23-9.0586 29.238c-5.9141 19.121-20.207 33.684-39.211 39.965-19.008 6.2695-39.164 3.1133-55.312-8.7188l-26.793-19.602 8.9336 23.875c7.1367 19.066 4.3398 40.352-7.4883 56.926-11.82 16.574-31.141 26.051-51.387 25.617l-29.594-0.77734 20.793 13.547c17.383 11.328 27.766 30.477 27.766 51.227s-10.379 39.902-27.766 51.227l-20.793 13.547 29.594-0.77734c20.328-0.41016 39.555 9.0352 51.387 25.609 11.824 16.586 14.625 37.871 7.4883 56.949l-8.9297 23.863 26.785-19.602c10.711-7.8555 23.184-11.895 35.91-11.895z"/>
  <path d="m298.06 278.1c-23.754 0-43.078-19.32-43.078-43.078 0-23.758 19.324-43.078 43.078-43.078s43.078 19.32 43.078 43.078c0 23.758-19.324 43.078-43.078 43.078zm0-64.617c-11.879 0-21.539 9.6641-21.539 21.539s9.6602 21.539 21.539 21.539 21.539-9.6641 21.539-21.539-9.6602-21.539-21.539-21.539z"/>
  <path d="m393.08 355.38c-17.816 0-32.309-14.492-32.309-32.309 0-17.816 14.492-32.309 32.309-32.309 17.816 0 32.309 14.492 32.309 32.309 0 17.816-14.492 32.309-32.309 32.309zm0-43.074c-5.9375 0-10.77 4.8281-10.77 10.77s4.832 10.77 10.77 10.77 10.77-4.8281 10.77-10.77-4.832-10.77-10.77-10.77z"/>
  <path d="m306.93 366.15h-10.77c-5.9492 0-10.77-4.8164-10.77-10.77 0-5.9531 4.8203-10.77 10.77-10.77h10.77c5.9492 0 10.77 4.8164 10.77 10.77 0 5.9531-4.8242 10.77-10.77 10.77z"/>
  <path d="m446.93 258.46c-5.9492 0-10.77-4.8164-10.77-10.77v-10.77c0-5.9531 4.8203-10.77 10.77-10.77 5.9492 0 10.77 4.8164 10.77 10.77v10.77c0 5.9531-4.8242 10.77-10.77 10.77z"/>
  <path d="m449.07 359.7c-2.2461 0-4.5117-0.70312-6.4453-2.1562-4.7578-3.5664-5.7266-10.316-2.1602-15.07l6.457-8.6211c3.5703-4.7422 10.328-5.7227 15.074-2.1562 4.7578 3.5664 5.7266 10.316 2.1602 15.07l-6.457 8.6211c-2.1172 2.8203-5.3555 4.3125-8.6289 4.3125z"/>
  <path d="m228.3 327.39c-2.2461 0-4.5117-0.70312-6.4453-2.1562-4.7578-3.5664-5.7266-10.316-2.1602-15.07l6.457-8.625c3.5664-4.7422 10.324-5.7109 15.074-2.1562 4.7578 3.5664 5.7266 10.316 2.1602 15.07l-6.457 8.625c-2.1172 2.8164-5.3555 4.3125-8.6289 4.3125z"/>
  <path d="m389.84 208.93c-2.2461 0-4.5117-0.70312-6.4453-2.1562-4.7578-3.5664-5.7266-10.316-2.1602-15.07l6.4609-8.6211c3.5664-4.7422 10.324-5.7227 15.074-2.1562 4.7578 3.5664 5.7266 10.316 2.1602 15.07l-6.457 8.625c-2.1172 2.8164-5.3555 4.3086-8.6328 4.3086z"/>
 </g>
</svg>
