<?xml version="1.0" encoding="UTF-8"?>
<svg width="100" height="100" version="1.1" viewBox="0 0 700 700" xmlns="http://www.w3.org/2000/svg" xmlns:xlink="http://www.w3.org/1999/xlink">
 <defs>
  <symbol id="i" overflow="visible">
   <path d="m18.766-1.125c-0.96875 0.5-1.9805 0.875-3.0312 1.125-1.043 0.25781-2.1367 0.39062-3.2812 0.39062-3.3984 0-6.0898-0.94531-8.0781-2.8438-1.9922-1.9062-2.9844-4.4844-2.9844-7.7344 0-3.2578 0.99219-5.8359 2.9844-7.7344 1.9883-1.9062 4.6797-2.8594 8.0781-2.8594 1.1445 0 2.2383 0.13281 3.2812 0.39062 1.0508 0.25 2.0625 0.625 3.0312 1.125v4.2188c-0.98047-0.65625-1.9453-1.1406-2.8906-1.4531-0.94922-0.3125-1.9492-0.46875-3-0.46875-1.875 0-3.3516 0.60547-4.4219 1.8125-1.0742 1.1992-1.6094 2.8555-1.6094 4.9688 0 2.1055 0.53516 3.7617 1.6094 4.9688 1.0703 1.1992 2.5469 1.7969 4.4219 1.7969 1.0508 0 2.0508-0.14844 3-0.45312 0.94531-0.3125 1.9102-0.80078 2.8906-1.4688z"/>
  </symbol>
  <symbol id="c" overflow="visible">
   <path d="m13.734-11.141c-0.4375-0.19531-0.87109-0.34375-1.2969-0.4375-0.41797-0.10156-0.83984-0.15625-1.2656-0.15625-1.2617 0-2.2305 0.40625-2.9062 1.2188-0.67969 0.80469-1.0156 1.9531-1.0156 3.4531v7.0625h-4.8906v-15.312h4.8906v2.5156c0.625-1 1.3438-1.7266 2.1562-2.1875 0.82031-0.46875 1.8008-0.70312 2.9375-0.70312 0.16406 0 0.34375 0.011719 0.53125 0.03125 0.19531 0.011719 0.47656 0.039062 0.84375 0.078125z"/>
  </symbol>
  <symbol id="a" overflow="visible">
   <path d="m17.641-7.7031v1.4062h-11.453c0.125 1.1484 0.53906 2.0078 1.25 2.5781 0.70703 0.57422 1.7031 0.85938 2.9844 0.85938 1.0312 0 2.082-0.14844 3.1562-0.45312 1.082-0.3125 2.1914-0.77344 3.3281-1.3906v3.7656c-1.1562 0.4375-2.3125 0.76562-3.4688 0.98438-1.1562 0.22656-2.3125 0.34375-3.4688 0.34375-2.7734 0-4.9297-0.70312-6.4688-2.1094-1.5312-1.4062-2.2969-3.3789-2.2969-5.9219 0-2.5 0.75391-4.4609 2.2656-5.8906 1.5078-1.4375 3.582-2.1562 6.2188-2.1562 2.4062 0 4.332 0.73047 5.7812 2.1875 1.4453 1.4492 2.1719 3.3828 2.1719 5.7969zm-5.0312-1.625c0-0.92578-0.27344-1.6719-0.8125-2.2344-0.54297-0.57031-1.25-0.85938-2.125-0.85938-0.94922 0-1.7188 0.26562-2.3125 0.79688s-0.96484 1.2969-1.1094 2.2969z"/>
  </symbol>
  <symbol id="k" overflow="visible">
   <path d="m9.2188-6.8906c-1.0234 0-1.793 0.17188-2.3125 0.51562-0.51172 0.34375-0.76562 0.85547-0.76562 1.5312 0 0.625 0.20703 1.1172 0.625 1.4688 0.41406 0.34375 0.98828 0.51562 1.7188 0.51562 0.92578 0 1.7031-0.32812 2.3281-0.98438 0.63281-0.66406 0.95312-1.4922 0.95312-2.4844v-0.5625zm7.4688-1.8438v8.7344h-4.9219v-2.2656c-0.65625 0.92969-1.3984 1.6055-2.2188 2.0312-0.82422 0.41406-1.8242 0.625-3 0.625-1.5859 0-2.8711-0.45703-3.8594-1.375-0.99219-0.92578-1.4844-2.1289-1.4844-3.6094 0-1.7891 0.61328-3.1016 1.8438-3.9375 1.2383-0.84375 3.1797-1.2656 5.8281-1.2656h2.8906v-0.39062c0-0.76953-0.30859-1.332-0.92188-1.6875-0.61719-0.36328-1.5703-0.54688-2.8594-0.54688-1.0547 0-2.0312 0.10547-2.9375 0.3125-0.89844 0.21094-1.7305 0.52344-2.5 0.9375v-3.7344c1.0391-0.25 2.0859-0.44141 3.1406-0.57812 1.0625-0.13281 2.125-0.20312 3.1875-0.20312 2.7578 0 4.75 0.54688 5.9688 1.6406 1.2266 1.0859 1.8438 2.8555 1.8438 5.3125z"/>
  </symbol>
  <symbol id="b" overflow="visible">
   <path d="m7.7031-19.656v4.3438h5.0469v3.5h-5.0469v6.5c0 0.71094 0.14062 1.1875 0.42188 1.4375s0.83594 0.375 1.6719 0.375h2.5156v3.5h-4.1875c-1.9375 0-3.3125-0.39844-4.125-1.2031-0.80469-0.8125-1.2031-2.1797-1.2031-4.1094v-6.5h-2.4219v-3.5h2.4219v-4.3438z"/>
  </symbol>
  <symbol id="j" overflow="visible">
   <path d="m12.766-13.078v-8.2031h4.9219v21.281h-4.9219v-2.2188c-0.66797 0.90625-1.4062 1.5703-2.2188 1.9844s-1.7578 0.625-2.8281 0.625c-1.8867 0-3.4336-0.75-4.6406-2.25-1.2109-1.5-1.8125-3.4258-1.8125-5.7812 0-2.3633 0.60156-4.2969 1.8125-5.7969 1.207-1.5 2.7539-2.25 4.6406-2.25 1.0625 0 2 0.21484 2.8125 0.64062 0.82031 0.42969 1.5664 1.0859 2.2344 1.9688zm-3.2188 9.9219c1.0391 0 1.8359-0.37891 2.3906-1.1406 0.55078-0.76953 0.82812-1.8828 0.82812-3.3438 0-1.457-0.27734-2.5664-0.82812-3.3281-0.55469-0.76953-1.3516-1.1562-2.3906-1.1562-1.043 0-1.8398 0.38672-2.3906 1.1562-0.55469 0.76172-0.82812 1.8711-0.82812 3.3281 0 1.4609 0.27344 2.5742 0.82812 3.3438 0.55078 0.76172 1.3477 1.1406 2.3906 1.1406z"/>
  </symbol>
  <symbol id="g" overflow="visible">
   <path d="m10.5-3.1562c1.0508 0 1.8516-0.37891 2.4062-1.1406 0.55078-0.76953 0.82812-1.8828 0.82812-3.3438 0-1.457-0.27734-2.5664-0.82812-3.3281-0.55469-0.76953-1.3555-1.1562-2.4062-1.1562-1.0547 0-1.8594 0.38672-2.4219 1.1562-0.55469 0.77344-0.82812 1.8828-0.82812 3.3281 0 1.4492 0.27344 2.5586 0.82812 3.3281 0.5625 0.77344 1.3672 1.1562 2.4219 1.1562zm-3.25-9.9219c0.67578-0.88281 1.4219-1.5391 2.2344-1.9688 0.82031-0.42578 1.7656-0.64062 2.8281-0.64062 1.8945 0 3.4453 0.75 4.6562 2.25 1.207 1.5 1.8125 3.4336 1.8125 5.7969 0 2.3555-0.60547 4.2812-1.8125 5.7812-1.2109 1.5-2.7617 2.25-4.6562 2.25-1.0625 0-2.0078-0.21094-2.8281-0.625-0.8125-0.42578-1.5586-1.0859-2.2344-1.9844v2.2188h-4.8906v-21.281h4.8906z"/>
  </symbol>
  <symbol id="f" overflow="visible">
   <path d="m0.34375-15.312h4.8906l4.125 10.391 3.5-10.391h4.8906l-6.4375 16.766c-0.64844 1.6953-1.4023 2.8828-2.2656 3.5625-0.86719 0.6875-2 1.0312-3.4062 1.0312h-2.8438v-3.2188h1.5312c0.83203 0 1.4375-0.13672 1.8125-0.40625 0.38281-0.26172 0.67969-0.73047 0.89062-1.4062l0.14062-0.42188z"/>
  </symbol>
  <symbol id="e" overflow="visible">
   <path d="m2.1875-5.9688v-9.3438h4.9219v1.5312c0 0.83594-0.007813 1.875-0.015625 3.125-0.011719 1.25-0.015625 2.0859-0.015625 2.5 0 1.2422 0.03125 2.1328 0.09375 2.6719 0.070313 0.54297 0.17969 0.93359 0.32812 1.1719 0.20703 0.32422 0.47266 0.57422 0.79688 0.75 0.32031 0.16797 0.69141 0.25 1.1094 0.25 1.0195 0 1.8203-0.39062 2.4062-1.1719 0.58203-0.78125 0.875-1.8672 0.875-3.2656v-7.5625h4.8906v15.312h-4.8906v-2.2188c-0.74219 0.89844-1.5234 1.5586-2.3438 1.9844-0.82422 0.41406-1.7344 0.625-2.7344 0.625-1.7617 0-3.1055-0.53906-4.0312-1.625-0.92969-1.082-1.3906-2.6602-1.3906-4.7344z"/>
  </symbol>
  <symbol id="v" overflow="visible">
   <path d="m7.8281-16.438v12.453h1.8906c2.1562 0 3.8008-0.53125 4.9375-1.5938 1.1328-1.0625 1.7031-2.6133 1.7031-4.6562 0-2.0195-0.57031-3.5547-1.7031-4.6094-1.125-1.0625-2.7734-1.5938-4.9375-1.5938zm-5.25-3.9688h5.5469c3.0938 0 5.3984 0.21875 6.9219 0.65625 1.5195 0.4375 2.8203 1.1875 3.9062 2.25 0.95703 0.91797 1.6641 1.9805 2.125 3.1875 0.46875 1.1992 0.70312 2.5586 0.70312 4.0781 0 1.543-0.23438 2.918-0.70312 4.125-0.46094 1.2109-1.168 2.2773-2.125 3.2031-1.0938 1.0547-2.4062 1.8047-3.9375 2.25-1.5312 0.4375-3.8281 0.65625-6.8906 0.65625h-5.5469z"/>
  </symbol>
  <symbol id="u" overflow="visible">
   <path d="m14.312-14.828v3.7188c-1.043-0.4375-2.0547-0.76562-3.0312-0.98438-0.98047-0.21875-1.9023-0.32812-2.7656-0.32812-0.92969 0-1.6211 0.11719-2.0781 0.34375-0.44922 0.23047-0.67188 0.58984-0.67188 1.0781 0 0.38672 0.17188 0.68359 0.51562 0.89062 0.34375 0.21094 0.95703 0.36719 1.8438 0.46875l0.85938 0.125c2.5078 0.32422 4.1953 0.85156 5.0625 1.5781 0.86328 0.73047 1.2969 1.8711 1.2969 3.4219 0 1.6367-0.60547 2.8672-1.8125 3.6875-1.1992 0.8125-2.9922 1.2188-5.375 1.2188-1.0234 0-2.0742-0.078125-3.1562-0.23438-1.0742-0.15625-2.1797-0.39453-3.3125-0.71875v-3.7188c0.96875 0.48047 1.9609 0.83984 2.9844 1.0781 1.0312 0.23047 2.0781 0.34375 3.1406 0.34375 0.95703 0 1.6758-0.12891 2.1562-0.39062 0.47656-0.26953 0.71875-0.66406 0.71875-1.1875 0-0.4375-0.16797-0.75781-0.5-0.96875-0.33594-0.21875-0.99609-0.38281-1.9844-0.5l-0.85938-0.10938c-2.1797-0.26953-3.7031-0.77344-4.5781-1.5156-0.875-0.73828-1.3125-1.8594-1.3125-3.3594 0-1.625 0.55078-2.8281 1.6562-3.6094 1.1133-0.78906 2.8203-1.1875 5.125-1.1875 0.89453 0 1.8359 0.074219 2.8281 0.21875 1 0.13672 2.082 0.35156 3.25 0.64062z"/>
  </symbol>
  <symbol id="t" overflow="visible">
   <path d="m2.3594-15.312h4.8906v15.312h-4.8906zm0-5.9688h4.8906v4h-4.8906z"/>
  </symbol>
  <symbol id="s" overflow="visible">
   <path d="m12.766-2.5938c-0.66797 0.88672-1.4062 1.543-2.2188 1.9688-0.8125 0.41797-1.7578 0.625-2.8281 0.625-1.8672 0-3.4062-0.73438-4.625-2.2031-1.2188-1.4766-1.8281-3.3516-1.8281-5.625 0-2.2891 0.60938-4.1641 1.8281-5.625 1.2188-1.4688 2.7578-2.2031 4.625-2.2031 1.0703 0 2.0156 0.21484 2.8281 0.64062 0.8125 0.41797 1.5508 1.0742 2.2188 1.9688v-2.2656h4.9219v13.766c0 2.457-0.77734 4.3359-2.3281 5.6406-1.5547 1.3008-3.8086 1.9531-6.7656 1.9531-0.94922 0-1.8711-0.074219-2.7656-0.21875-0.89844-0.14844-1.7969-0.37109-2.7031-0.67188v-3.8125c0.86328 0.48828 1.7031 0.85156 2.5156 1.0938 0.82031 0.23828 1.6484 0.35938 2.4844 0.35938 1.6016 0 2.7734-0.35156 3.5156-1.0469 0.75-0.69922 1.125-1.7969 1.125-3.2969zm-3.2188-9.5312c-1.0117 0-1.8047 0.375-2.375 1.125-0.5625 0.74219-0.84375 1.7969-0.84375 3.1719 0 1.3984 0.26953 2.4609 0.8125 3.1875 0.55078 0.71875 1.3516 1.0781 2.4062 1.0781 1.0195 0 1.8125-0.36719 2.375-1.1094 0.5625-0.75 0.84375-1.8008 0.84375-3.1562 0-1.375-0.28125-2.4297-0.84375-3.1719-0.5625-0.75-1.3555-1.125-2.375-1.125z"/>
  </symbol>
  <symbol id="h" overflow="visible">
   <path d="m17.75-9.3281v9.3281h-4.9219v-7.1406c0-1.3203-0.03125-2.2344-0.09375-2.7344s-0.16797-0.86719-0.3125-1.1094c-0.1875-0.3125-0.44922-0.55469-0.78125-0.73438-0.32422-0.17578-0.69531-0.26562-1.1094-0.26562-1.0234 0-1.8242 0.39844-2.4062 1.1875-0.58594 0.78125-0.875 1.8711-0.875 3.2656v7.5312h-4.8906v-15.312h4.8906v2.2344c0.73828-0.88281 1.5195-1.5391 2.3438-1.9688 0.83203-0.42578 1.75-0.64062 2.75-0.64062 1.7695 0 3.1133 0.54688 4.0312 1.6406 0.91406 1.0859 1.375 2.6562 1.375 4.7188z"/>
  </symbol>
  <symbol id="r" overflow="visible">
   <path d="m12.422-21.281v3.2188h-2.7031c-0.6875 0-1.1719 0.125-1.4531 0.375-0.27344 0.25-0.40625 0.6875-0.40625 1.3125v1.0625h4.1875v3.5h-4.1875v11.812h-4.8906v-11.812h-2.4375v-3.5h2.4375v-1.0625c0-1.6641 0.46094-2.8984 1.3906-3.7031 0.92578-0.80078 2.3672-1.2031 4.3281-1.2031z"/>
  </symbol>
  <symbol id="d" overflow="visible">
   <path d="m9.6406-12.188c-1.0859 0-1.9141 0.39062-2.4844 1.1719-0.57422 0.78125-0.85938 1.9062-0.85938 3.375s0.28516 2.5938 0.85938 3.375c0.57031 0.77344 1.3984 1.1562 2.4844 1.1562 1.0625 0 1.875-0.38281 2.4375-1.1562 0.57031-0.78125 0.85938-1.9062 0.85938-3.375s-0.28906-2.5938-0.85938-3.375c-0.5625-0.78125-1.375-1.1719-2.4375-1.1719zm0-3.5c2.6328 0 4.6914 0.71484 6.1719 2.1406 1.4766 1.418 2.2188 3.3867 2.2188 5.9062 0 2.5117-0.74219 4.4805-2.2188 5.9062-1.4805 1.418-3.5391 2.125-6.1719 2.125-2.6484 0-4.7148-0.70703-6.2031-2.125-1.4922-1.4258-2.2344-3.3945-2.2344-5.9062 0-2.5195 0.74219-4.4883 2.2344-5.9062 1.4883-1.4258 3.5547-2.1406 6.2031-2.1406z"/>
  </symbol>
  <symbol id="q" overflow="visible">
   <path d="m16.547-12.766c0.61328-0.94531 1.3477-1.6719 2.2031-2.1719 0.85156-0.5 1.7891-0.75 2.8125-0.75 1.7578 0 3.0977 0.54688 4.0156 1.6406 0.92578 1.0859 1.3906 2.6562 1.3906 4.7188v9.3281h-4.9219v-7.9844-0.35938c0.007813-0.13281 0.015625-0.32031 0.015625-0.5625 0-1.082-0.16406-1.8633-0.48438-2.3438-0.3125-0.48828-0.82422-0.73438-1.5312-0.73438-0.92969 0-1.6484 0.38672-2.1562 1.1562-0.51172 0.76172-0.77344 1.8672-0.78125 3.3125v7.5156h-4.9219v-7.9844c0-1.6953-0.14844-2.7852-0.4375-3.2656-0.29297-0.48828-0.8125-0.73438-1.5625-0.73438-0.9375 0-1.6641 0.38672-2.1719 1.1562-0.51172 0.76172-0.76562 1.8594-0.76562 3.2969v7.5312h-4.9219v-15.312h4.9219v2.2344c0.60156-0.86328 1.2891-1.5156 2.0625-1.9531 0.78125-0.4375 1.6406-0.65625 2.5781-0.65625 1.0625 0 2 0.25781 2.8125 0.76562 0.8125 0.51172 1.4258 1.2305 1.8438 2.1562z"/>
  </symbol>
  <symbol id="p" overflow="visible">
   <path d="m17.75-9.3281v9.3281h-4.9219v-7.1094c0-1.3438-0.03125-2.2656-0.09375-2.7656s-0.16797-0.86719-0.3125-1.1094c-0.1875-0.3125-0.44922-0.55469-0.78125-0.73438-0.32422-0.17578-0.69531-0.26562-1.1094-0.26562-1.0234 0-1.8242 0.39844-2.4062 1.1875-0.58594 0.78125-0.875 1.8711-0.875 3.2656v7.5312h-4.8906v-21.281h4.8906v8.2031c0.73828-0.88281 1.5195-1.5391 2.3438-1.9688 0.83203-0.42578 1.75-0.64062 2.75-0.64062 1.7695 0 3.1133 0.54688 4.0312 1.6406 0.91406 1.0859 1.375 2.6562 1.375 4.7188z"/>
  </symbol>
  <symbol id="o" overflow="visible">
   <path d="m2.5781-20.406h5.875l7.4219 14v-14h4.9844v20.406h-5.875l-7.4219-14v14h-4.9844z"/>
  </symbol>
  <symbol id="n" overflow="visible">
   <path d="m2.5781-20.406h8.7344c2.5938 0 4.582 0.57812 5.9688 1.7344 1.3945 1.1484 2.0938 2.7891 2.0938 4.9219 0 2.1367-0.69922 3.7812-2.0938 4.9375-1.3867 1.1562-3.375 1.7344-5.9688 1.7344h-3.4844v7.0781h-5.25zm5.25 3.8125v5.7031h2.9219c1.0195 0 1.8047-0.25 2.3594-0.75 0.5625-0.5 0.84375-1.2031 0.84375-2.1094 0-0.91406-0.28125-1.6172-0.84375-2.1094-0.55469-0.48828-1.3398-0.73438-2.3594-0.73438z"/>
  </symbol>
  <symbol id="m" overflow="visible">
   <path d="m2.3594-15.312h4.8906v15.031c0 2.0508-0.49609 3.6172-1.4844 4.7031-0.98047 1.082-2.4062 1.625-4.2812 1.625h-2.4219v-3.2188h0.85938c0.92578 0 1.5625-0.21094 1.9062-0.625 0.35156-0.41797 0.53125-1.2461 0.53125-2.4844zm0-5.9688h4.8906v4h-4.8906z"/>
  </symbol>
  <symbol id="l" overflow="visible">
   <path d="m14.719-14.828v3.9844c-0.65625-0.45703-1.3242-0.79688-2-1.0156-0.66797-0.21875-1.3594-0.32812-2.0781-0.32812-1.3672 0-2.4336 0.40234-3.2031 1.2031-0.76172 0.79297-1.1406 1.9062-1.1406 3.3438 0 1.4297 0.37891 2.543 1.1406 3.3438 0.76953 0.79297 1.8359 1.1875 3.2031 1.1875 0.75781 0 1.4844-0.10938 2.1719-0.32812 0.6875-0.22656 1.3203-0.56641 1.9062-1.0156v4c-0.76172 0.28125-1.5391 0.48828-2.3281 0.625-0.78125 0.14453-1.5742 0.21875-2.375 0.21875-2.7617 0-4.9219-0.70703-6.4844-2.125-1.5547-1.4141-2.3281-3.3828-2.3281-5.9062 0-2.5312 0.77344-4.5039 2.3281-5.9219 1.5625-1.4141 3.7227-2.125 6.4844-2.125 0.80078 0 1.5938 0.074219 2.375 0.21875 0.78125 0.13672 1.5547 0.35156 2.3281 0.64062z"/>
  </symbol>
 </defs>
 <g>
  <path d="m344.56 234.96c0 3.0078 2.4375 5.4414 5.4414 5.4414 3.0078 0 5.4414-2.4375 5.4414-5.4414v-56.336c0-3.0078-2.4375-5.4414-5.4414-5.4414h-0.011719-13.996-0.011719-2.7148l-1.6367 2.1836c-0.55859 0.74609-1.1523 1.457-1.7812 2.1172-4.4023 4.6602-10.445 7.2812-16.961 7.2812-6.25 0-12.125-2.4375-16.543-6.8555-4.418-4.418-6.8555-10.297-6.8555-16.547 0-7.2617 3.3203-13.758 8.5234-18.055 4.043-3.3438 9.2305-5.3477 14.867-5.3477 7.4492 0 14.281 3.4258 18.742 9.3984l1.6367 2.1836h2.6875c0.011719 0 0.023438 0.003906 0.039063 0.003906l14.016-0.003906c3.0078 0 5.4414-2.4375 5.4414-5.4414v-0.011719h0.003906v-79.32c0-3.0078-2.4375-5.4414-5.4414-5.4414-3.0078 0-5.4414 2.4375-5.4414 5.4414v73.879h-5.9805c-0.13281-0.15625-0.28125-0.29688-0.42188-0.45312-0.21094-0.23438-0.42578-0.46875-0.64453-0.69922-0.23047-0.23438-0.46484-0.46484-0.69531-0.69531-0.22266-0.21875-0.44141-0.4375-0.67187-0.64844-0.24609-0.22266-0.49219-0.44141-0.74609-0.66016-0.23047-0.20312-0.45312-0.40234-0.68359-0.59766-0.27344-0.22266-0.55469-0.44141-0.83594-0.65625-0.21875-0.17188-0.4375-0.34766-0.65625-0.51563-0.48828-0.36328-0.99219-0.71094-1.4961-1.0469-0.24219-0.15625-0.48828-0.30078-0.72656-0.45313-0.29297-0.17969-0.57812-0.36328-0.86719-0.53906-0.26172-0.15234-0.53125-0.29297-0.79688-0.44141-0.28516-0.15625-0.56641-0.3125-0.85547-0.46094-0.27344-0.14062-0.55469-0.26953-0.82812-0.40234-0.29297-0.13281-0.57812-0.27344-0.86719-0.40234-0.28516-0.125-0.57031-0.24219-0.85547-0.35938-0.29688-0.125-0.59375-0.24219-0.89062-0.35156-0.29297-0.10547-0.58203-0.21094-0.875-0.3125-0.30078-0.10547-0.60547-0.20703-0.91406-0.30078-0.29688-0.09375-0.59375-0.17969-0.89062-0.26953-0.30859-0.089844-0.62109-0.16797-0.93359-0.25391-0.29688-0.078124-0.59766-0.15234-0.90234-0.21875-0.32031-0.074218-0.64453-0.13281-0.96875-0.20312-0.29688-0.054688-0.59766-0.11719-0.90234-0.16797-0.33594-0.054688-0.67578-0.10156-1.0195-0.14453-0.29297-0.039063-0.58984-0.085938-0.88672-0.11719-0.36328-0.039062-0.73438-0.066406-1.1016-0.09375-0.27344-0.023438-0.54688-0.050781-0.82422-0.066406-0.49219-0.027344-0.98438-0.035156-1.4844-0.042969-0.15234 0-0.29688-0.011719-0.44922-0.011719-7.6758 0-14.773 2.5352-20.496 6.8203-8.3594 6.2617-13.781 16.246-13.789 27.473 0 9.1562 3.5664 17.762 10.039 24.242 6.4727 6.4805 15.082 10.047 24.238 10.047 0.66016 0 1.3164-0.023438 1.9727-0.054688 0.16797-0.011719 0.33594-0.027344 0.50391-0.039062 0.47656-0.035157 0.95312-0.074219 1.4297-0.125 0.22266-0.023438 0.44922-0.0625 0.67188-0.089844 0.41016-0.054688 0.82422-0.11328 1.2305-0.17969 0.24609-0.039062 0.49219-0.089844 0.73438-0.14062 0.37891-0.074219 0.76172-0.14453 1.1367-0.23438 0.25391-0.054687 0.50391-0.125 0.75781-0.18359 0.36328-0.089843 0.72656-0.18359 1.0859-0.29297 0.25391-0.074219 0.50781-0.15234 0.76172-0.23047 0.35156-0.11328 0.70703-0.22266 1.0547-0.34766 0.25391-0.089844 0.5-0.17188 0.75-0.26953 0.34766-0.12891 0.6875-0.26953 1.0312-0.41016 0.24219-0.10156 0.48828-0.20312 0.72656-0.30078 0.34766-0.15234 0.68359-0.3125 1.0234-0.47656 0.23047-0.11328 0.46094-0.21875 0.68359-0.33203 0.35156-0.17969 0.70703-0.375 1.0547-0.56641 0.20312-0.11328 0.41016-0.21875 0.60547-0.33594 0.40234-0.23437 0.79688-0.48047 1.1797-0.72656 0.14062-0.089844 0.28516-0.17188 0.42188-0.26172 0.52734-0.34766 1.043-0.70703 1.5508-1.0859 0.11719-0.089844 0.23047-0.18359 0.34766-0.27344 0.38672-0.29297 0.76562-0.59375 1.1406-0.90234 0.17969-0.15234 0.35156-0.30859 0.53125-0.46484 0.30078-0.26172 0.60547-0.52734 0.90234-0.80078 0.19141-0.17969 0.375-0.36328 0.56641-0.54688 0.26953-0.26172 0.54297-0.52734 0.80469-0.80078 0.19141-0.19531 0.375-0.40234 0.55859-0.60547 0.15625-0.17187 0.32422-0.33594 0.47656-0.51562h5.9805l0.007812 50.91z"/>
  <path d="m323.06 256.46h-56.336c-3.0078 0-5.4414 2.4375-5.4414 5.4414 0 0.015625 0.003906 0.035156 0.003906 0.050781v13.949c0 0.125 0.027344 0.23438 0.035157 0.35156 0.011719 0.19531 0.023437 0.38672 0.054687 0.58203 0.027344 0.17188 0.078125 0.33594 0.125 0.50391 0.042969 0.17188 0.09375 0.33984 0.15625 0.50781 0.0625 0.16406 0.14062 0.32031 0.21875 0.47656s0.15625 0.3125 0.25391 0.46484c0.09375 0.15234 0.20313 0.28516 0.30859 0.42578 0.10547 0.14062 0.21094 0.28125 0.33594 0.41016 0.13281 0.14062 0.27344 0.26172 0.42188 0.38672 0.09375 0.078125 0.16797 0.17188 0.26953 0.24609 5.9766 4.4688 9.3984 11.301 9.3984 18.742 0 12.902-10.5 23.398-23.406 23.398-6.25 0-12.129-2.4375-16.547-6.8555-4.418-4.418-6.8555-10.293-6.8555-16.543 0-7.4492 3.4258-14.281 9.3984-18.742 0.10156-0.074219 0.17969-0.16797 0.27344-0.25391 0.14453-0.125 0.28516-0.24609 0.42188-0.38672 0.125-0.12891 0.23047-0.26953 0.33594-0.41016 0.10547-0.14063 0.21094-0.27344 0.30859-0.42578 0.09375-0.15234 0.17188-0.30859 0.25391-0.46875 0.078125-0.15625 0.15625-0.3125 0.21875-0.47656 0.0625-0.16797 0.11328-0.33594 0.15625-0.50781 0.042969-0.16797 0.09375-0.33203 0.125-0.50391 0.035157-0.19141 0.042969-0.38672 0.054688-0.58203 0.003906-0.11719 0.035156-0.23047 0.035156-0.35156v-13.988-0.011719c0-0.375-0.039063-0.74609-0.11328-1.0977-0.50391-2.4805-2.6992-4.3516-5.332-4.3516-0.023437 0-0.039062 0.003907-0.0625 0.003907h-78.598c-3.0078 0-5.4414 2.4375-5.4414 5.4414 0 3.0078 2.4375 5.4414 5.4414 5.4414h73.215v5.9961c-7.293 6.4688-11.582 15.859-11.582 25.664 0 9.1562 3.5664 17.762 10.047 24.242 6.4805 6.4727 15.086 10.039 24.242 10.039 18.91 0 34.293-15.379 34.293-34.281 0-9.8008-4.2891-19.191-11.582-25.66v-6.0039h50.887c3.0078 0 5.4414-2.4375 5.4414-5.4414 0.003906-2.9883-2.4297-5.4219-5.4336-5.4219z"/>
  <path d="m350 41.789c-121.38 0-220.12 98.746-220.12 220.12s98.746 220.12 220.12 220.12 220.11-98.746 220.11-220.12c0-121.38-98.738-220.12-220.11-220.12zm0 332.48c-3.0078 0-5.4414 2.4375-5.4414 5.4414v0.011719 91.348c-112.87-2.8945-203.8-95.609-203.8-209.16 0-115.37 93.863-209.23 209.23-209.23 113.55 0 206.27 90.926 209.16 203.8h-85.922v-5.9961c7.3867-6.5078 11.582-15.707 11.582-25.664 0-18.906-15.383-34.281-34.289-34.281s-34.289 15.379-34.289 34.281c0 9.9609 4.1953 19.164 11.582 25.672v5.9922l-77.824-0.003906c-3.0078 0-5.4414 2.4375-5.4414 5.4414v83.273c0 3.0078 2.4375 5.4414 5.4414 5.4414h0.023438 13.984c0.125 0 0.23438-0.027344 0.35938-0.035156 0.19141-0.011719 0.38672-0.023438 0.57812-0.054688 0.17188-0.027344 0.33984-0.078125 0.51563-0.125 0.16797-0.042969 0.33594-0.09375 0.5-0.15625 0.16797-0.0625 0.32422-0.14453 0.48828-0.22266 0.15625-0.078125 0.30859-0.15625 0.46094-0.24609 0.15234-0.09375 0.29297-0.20703 0.4375-0.32031 0.13281-0.10547 0.26953-0.20703 0.39844-0.32422 0.14453-0.13281 0.27344-0.29297 0.40234-0.44141 0.074218-0.089843 0.16406-0.15625 0.23047-0.25391 4.4688-5.9766 11.301-9.3984 18.742-9.4023 6.25 0 12.125 2.4375 16.543 6.8555 4.418 4.4258 6.8555 10.297 6.8555 16.555 0 12.902-10.496 23.402-23.398 23.402-7.4492 0-14.281-3.4219-18.742-9.3984-0.066406-0.09375-0.15625-0.16406-0.23047-0.25391-0.12891-0.15625-0.26172-0.30859-0.41016-0.44922-0.125-0.11719-0.25391-0.21094-0.38672-0.32031-0.14453-0.11328-0.29297-0.22266-0.44922-0.32422-0.14062-0.089844-0.29297-0.16406-0.44141-0.24219-0.16797-0.085937-0.33203-0.16797-0.50391-0.23047-0.15625-0.0625-0.32031-0.10156-0.47656-0.14453-0.17969-0.050781-0.35156-0.10156-0.53906-0.12891-0.17969-0.035156-0.36328-0.042969-0.54688-0.054687-0.12891-0.011719-0.24609-0.039063-0.375-0.039063zm5.4414 96.805v-85.914h5.9922c6.5078 7.3867 15.707 11.582 25.672 11.582 18.898 0 34.277-15.383 34.277-34.289 0-9.1562-3.5664-17.77-10.039-24.242-6.4727-6.4805-15.082-10.047-24.242-10.047-9.9609 0-19.164 4.1953-25.672 11.586h-5.9922v-72.402h77.828c3.0078 0 5.4375-2.4375 5.4375-5.4414v-0.011719-13.988c0-0.11719-0.027344-0.23047-0.035156-0.34766-0.011719-0.19531-0.023438-0.39063-0.054688-0.58984-0.027343-0.17188-0.078125-0.33594-0.125-0.50391-0.042969-0.17188-0.09375-0.33984-0.15625-0.50781s-0.14062-0.32031-0.21875-0.47656-0.15625-0.3125-0.25391-0.46484c-0.09375-0.15234-0.20312-0.29297-0.3125-0.42969-0.10547-0.13281-0.21094-0.27344-0.33203-0.40234-0.13281-0.14063-0.28516-0.26953-0.42969-0.39844-0.089844-0.078125-0.16406-0.16797-0.25781-0.24219-5.9688-4.4688-9.3984-11.297-9.3984-18.742 0-12.902 10.5-23.398 23.402-23.398 12.906 0 23.406 10.496 23.406 23.398 0 7.4492-3.4258 14.281-9.3984 18.742-0.10156 0.078126-0.18359 0.17188-0.28125 0.25781-0.14062 0.11719-0.28125 0.23438-0.40234 0.37109-0.12891 0.13281-0.24219 0.28516-0.35938 0.42969-0.10156 0.12891-0.20312 0.25781-0.28516 0.39844-0.10156 0.16406-0.19141 0.33203-0.27344 0.50391-0.074219 0.14453-0.14062 0.28516-0.20312 0.4375-0.074219 0.18359-0.125 0.37109-0.17188 0.55859-0.039062 0.15234-0.085938 0.29688-0.11328 0.45312-0.039063 0.21094-0.050781 0.42578-0.066407 0.64453-0.003906 0.10547-0.035156 0.20312-0.035156 0.30859v14c0 1.8828 0.95703 3.5391 2.4062 4.5195 0.86719 0.58984 1.9141 0.92969 3.0391 0.92969h91.352c-2.8359 111.06-92.648 200.86-203.7 203.72z"/>
  <path d="m275.95 493.11-1.0234-0.33203c-0.17188-0.054688-0.33984-0.10156-0.51563-0.14062-0.16406-0.074219-0.33203-0.13281-0.50391-0.19531l-1.0078-0.33594c-0.011719-0.003906-0.015625-0.003906-0.027344-0.011719-5.3555-1.793-10.711-3.8008-15.934-5.9688-2.7734-1.1523-5.957 0.16406-7.1133 2.9336-1.1523 2.7773 0.16406 5.957 2.9414 7.1133 5.4609 2.2695 11.07 4.375 16.676 6.25 0.011719 0.003907 0.015626 0.003907 0.027344 0.011719l1.0352 0.33984c0.17969 0.054687 0.35938 0.10547 0.53125 0.14453 0.16797 0.074219 0.33984 0.14062 0.51953 0.20312l1.0586 0.33984c0.55469 0.17969 1.1133 0.26172 1.668 0.26172 2.3008 0 4.4336-1.4727 5.1797-3.7734 0.92188-2.8516-0.65234-5.9141-3.5117-6.8398z"/>
  <path d="m332.24 503.98-1.0703-0.078124c-0.17969-0.015626-0.36328-0.023438-0.53125-0.015626-0.17188-0.027343-0.33984-0.054687-0.51953-0.066406l-1.0703-0.089844h-0.023437c-5.6289-0.48047-11.305-1.1719-16.871-2.0391-2.9688-0.46484-5.75 1.5625-6.2148 4.5352-0.46484 2.9688 1.5625 5.75 4.5352 6.2148 5.8281 0.91406 11.77 1.6289 17.656 2.1328 0.011719 0 0.015625 0 0.027344 0.003907l1.0742 0.089843c0.19141 0.015626 0.37891 0.023438 0.56641 0.015626 0.17969 0.035156 0.36328 0.054687 0.54688 0.066406l1.1016 0.085937c0.13281 0.011719 0.26953 0.015625 0.40234 0.015625 2.8242 0 5.2148-2.1836 5.4219-5.0469 0.21484-2.9961-2.0352-5.6055-5.0312-5.8242z"/>
  <path d="m223.77 469.25-0.90625-0.55469c-0.15234-0.09375-0.30859-0.17969-0.46484-0.25781-0.14062-0.10547-0.28516-0.20703-0.44141-0.30078l-0.90234-0.56641c-0.035156-0.023437-0.066406-0.039062-0.10156-0.0625-4.7539-2.9922-9.4648-6.1875-14.004-9.5039-2.4258-1.7734-5.8281-1.2422-7.6055 1.1797-1.7734 2.4258-1.2422 5.8281 1.1797 7.6055 4.7773 3.4883 9.7266 6.8477 14.727 9.9922 0.039062 0.023437 0.074218 0.042968 0.11328 0.066406l0.83594 0.51953c0.15625 0.10156 0.32422 0.19141 0.48828 0.26953 0.14453 0.11328 0.30078 0.21875 0.46484 0.32031l0.95312 0.58203c0.88672 0.53906 1.8633 0.79688 2.8281 0.79688 1.8359 0 3.6289-0.92969 4.6523-2.6094 1.5586-2.5664 0.74609-5.9141-1.8164-7.4766z"/>
  <path d="m108 280.57-0.078125-1.0586c-0.011719-0.17969-0.035157-0.35156-0.0625-0.52734 0.003906-0.17969 0-0.35938-0.011719-0.53906l-0.066406-1.0586v-0.003907c-0.32422-5.1172-0.48828-10.328-0.48828-15.477 0-3.0078-2.4375-5.4414-5.4414-5.4414-3.0078 0-5.4414 2.4375-5.4414 5.4414 0 5.375 0.17188 10.801 0.50391 16.141v0.023437l0.074219 1.1094c0.011719 0.18359 0.035156 0.37109 0.066406 0.54687-0.003906 0.18359 0 0.37109 0.011719 0.55859l0.085938 1.1094c0.21875 2.8555 2.6055 5.0273 5.4219 5.0273 0.14063 0 0.28125-0.003906 0.42188-0.015625 2.9883-0.22266 5.2344-2.8398 5.0039-5.8359z"/>
  <path d="m118.74 335.8c-0.054688-0.16797-0.11719-0.33594-0.18359-0.49219-0.035156-0.17188-0.085938-0.34766-0.13281-0.51953l-0.30859-0.98047c-0.003907-0.011719-0.003907-0.023438-0.011719-0.039063-1.668-5.3945-3.168-10.922-4.457-16.426-0.68359-2.9297-3.6172-4.7422-6.5352-4.0586-2.9297 0.68359-4.7422 3.6133-4.0586 6.5352 1.3398 5.7383 2.9023 11.496 4.6406 17.121 0.003907 0.015625 0.011719 0.027344 0.015626 0.042969l0.33203 1.0625c0.054687 0.17969 0.125 0.35156 0.19141 0.51953 0.039063 0.17969 0.085937 0.36328 0.14453 0.54297l0.33594 1.0547c0.74609 2.3008 2.8789 3.7695 5.1797 3.7695 0.55469 0 1.1211-0.085938 1.6758-0.26172 2.8633-0.92578 4.4297-3.9922 3.5039-6.8477z"/>
  <path d="m142.54 387.94c-0.09375-0.15625-0.19531-0.30078-0.30078-0.44141-0.074219-0.15625-0.15625-0.3125-0.25391-0.46484l-0.50781-0.85156c-0.011718-0.015625-0.023437-0.039063-0.035156-0.054688-2.9023-4.8555-5.6562-9.8672-8.1992-14.902-1.3555-2.6836-4.6328-3.7578-7.3125-2.4023-2.6836 1.3555-3.7578 4.6328-2.4023 7.3125 2.6484 5.2344 5.5156 10.457 8.5273 15.508 0.011719 0.023438 0.027344 0.042969 0.039063 0.066407l0.57031 0.94531c0.09375 0.16406 0.20312 0.3125 0.3125 0.46484 0.078125 0.16406 0.16797 0.32422 0.26172 0.48047l0.58203 0.95313c1.0312 1.668 2.8125 2.5938 4.6406 2.5938 0.97266 0 1.9609-0.26172 2.8438-0.80469 2.5586-1.5742 3.3555-4.9297 1.7812-7.4883z"/>
  <path d="m177.91 433.06c-0.12891-0.12891-0.26172-0.25391-0.40234-0.37109-0.11328-0.13281-0.22266-0.26172-0.35156-0.39062l-0.73828-0.75c-0.023438-0.023437-0.042969-0.050781-0.066407-0.074219-3.9258-4.0195-7.7656-8.2305-11.406-12.523-1.9492-2.2891-5.3828-2.5703-7.6719-0.62109-2.2891 1.9492-2.5703 5.3828-0.62109 7.6719 3.8242 4.5039 7.8516 8.9219 11.977 13.145 0.023438 0.023438 0.050782 0.050781 0.074219 0.074219l0.70703 0.71875c0.13281 0.13281 0.27344 0.26172 0.41406 0.37891 0.11328 0.14062 0.23438 0.27344 0.36328 0.40234l0.78906 0.78906c1.0625 1.0586 2.4531 1.5898 3.8398 1.5898 1.3945 0 2.7891-0.53125 3.8516-1.5977 2.1211-2.1289 2.1172-5.5703-0.003907-7.6953z"/>
  <path d="m593.23 311.63c-2.9297-0.66016-5.8477 1.1797-6.5078 4.1094l-0.23438 1.0234c-0.039063 0.17188-0.074219 0.35156-0.09375 0.52734-0.054687 0.16797-0.10547 0.33984-0.14453 0.51953l-0.24609 1.0312c-0.003906 0.015625-0.003906 0.035156-0.011719 0.050781-1.3164 5.4766-2.8438 10.977-4.5469 16.348-0.90625 2.8672 0.67578 5.9258 3.543 6.832 0.54688 0.17188 1.1016 0.25391 1.6406 0.25391 2.3086 0 4.4531-1.4766 5.1875-3.8008 1.7852-5.6328 3.3867-11.402 4.7656-17.137 0.003906-0.023438 0.011719-0.042969 0.015625-0.066407l0.24609-1.0234c0.042968-0.17969 0.074218-0.36328 0.10156-0.54297 0.054688-0.17188 0.11328-0.35156 0.15234-0.53125l0.25391-1.0977c0.64844-2.9219-1.1875-5.8359-4.1211-6.4961z"/>
  <path d="m598.15 256.46c-3.0078 0-5.4414 2.4375-5.4414 5.4414 0 5.6719-0.19531 11.395-0.58984 17.02-0.20703 2.9961 2.0547 5.6016 5.0508 5.8086 0.12891 0.011719 0.25781 0.011719 0.37891 0.011719 2.832 0 5.2266-2.1953 5.4219-5.0664 0.41016-5.8672 0.60938-11.848 0.60938-17.77 0.015625-3.0117-2.4219-5.4453-5.4297-5.4453z"/>
  <path d="m574.78 367.3c-2.6953-1.3398-5.957-0.23438-7.293 2.4648l-0.46875 0.94531c-0.085937 0.16406-0.15625 0.32422-0.21875 0.49219-0.09375 0.14453-0.17969 0.30078-0.26172 0.46094l-0.48047 0.94531c-2.582 5.0273-5.3828 10.035-8.3086 14.875-1.5586 2.5703-0.73828 5.918 1.832 7.4766 0.88672 0.53125 1.8555 0.78906 2.8164 0.78906 1.8359 0 3.6328-0.93359 4.6602-2.6211 3.0625-5.0586 5.9883-10.281 8.6875-15.539 0.003906-0.003906 0.003906-0.015625 0.011718-0.023438l0.49219-0.96875c0.085937-0.16797 0.16406-0.33984 0.23047-0.50781 0.09375-0.15625 0.19141-0.3125 0.27344-0.48047l0.50391-1.0078c1.3203-2.7031 0.21875-5.9688-2.4766-7.3008z"/>
  <path d="m389.52 501.42-1.0586 0.16797c-0.17188 0.027343-0.34766 0.066406-0.51953 0.11328-0.17188 0.011719-0.34766 0.027343-0.52734 0.054687l-1.0586 0.16406h-0.003907c-5.582 0.83984-11.266 1.4883-16.906 1.9336-2.9961 0.23438-5.2305 2.8555-4.9961 5.8516 0.22266 2.8516 2.6094 5.0117 5.4219 5.0117 0.14453 0 0.29297-0.003906 0.4375-0.015625 5.8867-0.46484 11.82-1.1406 17.652-2.0234h0.015624l1.0977-0.16797c0.18359-0.027343 0.37109-0.066406 0.54688-0.11328 0.18359-0.011719 0.37109-0.027343 0.55469-0.0625l1.0938-0.17188c2.9688-0.48047 4.9766-3.2812 4.4922-6.25-0.48047-2.9648-3.2734-4.9844-6.2422-4.4922z"/>
  <path d="m536.07 417.76-0.67578 0.80469c-0.11719 0.14062-0.22266 0.28125-0.32422 0.42188-0.12891 0.125-0.25391 0.25391-0.37109 0.39062l-0.69531 0.8125c-0.003906 0.003906-0.011719 0.015625-0.015625 0.023438-3.6797 4.2734-7.5586 8.4727-11.535 12.488-2.1172 2.1328-2.1016 5.582 0.039062 7.6953 1.0625 1.0547 2.4453 1.5742 3.832 1.5742 1.3984 0 2.8008-0.53906 3.8711-1.6133 4.1562-4.1992 8.2227-8.5977 12.066-13.07 0.011719-0.011718 0.023438-0.023437 0.027344-0.035156l0.69531-0.80469c0.125-0.14062 0.23438-0.28516 0.33594-0.4375 0.13281-0.12891 0.26172-0.26172 0.37891-0.41016l0.72266-0.86328c1.9258-2.3086 1.6172-5.7383-0.68359-7.668-2.3086-1.918-5.7422-1.6133-7.668 0.69141z"/>
  <path d="m444.59 485.5-0.98438 0.41406c-0.16797 0.066406-0.32422 0.14453-0.48047 0.23047-0.16797 0.050781-0.33203 0.11328-0.49219 0.17188l-0.98438 0.40234c-0.023437 0.011718-0.050781 0.023437-0.074219 0.027344-5.2148 2.1289-10.562 4.0898-15.902 5.8398-2.8555 0.93359-4.4141 4.0078-3.4766 6.8672 0.75 2.2969 2.8789 3.7461 5.168 3.7461 0.55859 0 1.1328-0.089843 1.6953-0.26953 5.6055-1.8359 11.227-3.9023 16.699-6.1367 0.027344-0.011718 0.054688-0.023437 0.089844-0.035156l0.94141-0.38672c0.17188-0.074219 0.33984-0.15234 0.50781-0.24219 0.17188-0.054688 0.34766-0.11328 0.51953-0.18359l1.0117-0.42578c2.7656-1.1719 4.0664-4.3633 2.9023-7.1289-1.1836-2.7617-4.3711-4.0586-7.1406-2.8906z"/>
  <path d="m494.32 457.07-0.85156 0.62891c-0.14453 0.10547-0.28516 0.21875-0.41406 0.33594-0.15234 0.089844-0.29688 0.18359-0.4375 0.28516l-0.86719 0.62891c-0.023437 0.015626-0.042968 0.027344-0.0625 0.042969-4.5703 3.293-9.3086 6.457-14.078 9.4141-2.5547 1.5781-3.3438 4.9336-1.7656 7.4922 1.0312 1.6641 2.8125 2.5742 4.6328 2.5742 0.97266 0 1.9648-0.26172 2.8633-0.81641 5.0117-3.1016 9.9844-6.4297 14.777-9.8828 0.023437-0.023437 0.050781-0.039062 0.074218-0.054687l0.8125-0.58984c0.15625-0.11328 0.30078-0.23047 0.44141-0.35156 0.15625-0.09375 0.3125-0.19531 0.46484-0.30859l0.89453-0.66016c2.4141-1.793 2.9219-5.1953 1.1328-7.6094-1.8008-2.4102-5.2031-2.9219-7.6172-1.1289z"/>
 </g>
</svg>
